G75*
G70*
%OFA0B0*%
%FSLAX24Y24*%
%IPPOS*%
%LPD*%
%AMOC8*
5,1,8,0,0,1.08239X$1,22.5*
%
%ADD10C,0.1080*%
%ADD11R,0.3033X0.0671*%
%ADD12R,0.2639X0.0474*%
%ADD13R,0.0320X0.0950*%
%ADD14R,0.1080X0.0580*%
%ADD15R,0.0710X0.0790*%
%ADD16R,0.0790X0.0710*%
%ADD17R,0.0789X0.0710*%
%ADD18R,0.0710X0.0789*%
%ADD19R,0.0867X0.1025*%
%ADD20R,0.0520X0.0710*%
%ADD21R,0.0474X0.0631*%
%ADD22R,0.0946X0.0316*%
D10*
X019551Y001123D03*
D11*
X002022Y002195D03*
X002022Y004950D03*
D12*
X002219Y003966D03*
X002219Y003179D03*
D13*
X008151Y003748D03*
X008651Y003748D03*
X009151Y003748D03*
X009651Y003748D03*
X010151Y003748D03*
X010651Y003748D03*
X011151Y003748D03*
X011151Y005798D03*
X010651Y005798D03*
X010151Y005798D03*
X009651Y005798D03*
X009151Y005798D03*
X008651Y005798D03*
X008151Y005798D03*
D14*
X017201Y004623D03*
X019350Y004623D03*
X019350Y003623D03*
X017201Y003623D03*
X017201Y002623D03*
X019350Y002623D03*
D15*
X015761Y001473D03*
X014641Y001473D03*
X006911Y005373D03*
X005791Y005373D03*
D16*
X005751Y004432D03*
X007001Y004382D03*
X004801Y003632D03*
X005751Y003313D03*
X007001Y003263D03*
X004801Y002513D03*
X007001Y002332D03*
X007001Y001213D03*
X012001Y002963D03*
X012001Y004082D03*
D17*
X008901Y002324D03*
X007951Y002324D03*
X007951Y001221D03*
X008901Y001221D03*
D18*
X012650Y001473D03*
X013752Y001473D03*
D19*
X011738Y001723D03*
X010163Y001723D03*
D20*
X017141Y001823D03*
X017761Y001823D03*
X017711Y005823D03*
X017091Y005823D03*
D21*
X005527Y001956D03*
X006275Y001956D03*
X005901Y001089D03*
D22*
X013177Y002523D03*
X013177Y003023D03*
X013177Y003523D03*
X013177Y004023D03*
X013177Y004523D03*
X013177Y005023D03*
X013177Y005523D03*
X015224Y005523D03*
X015224Y005023D03*
X015224Y004523D03*
X015224Y004023D03*
X015224Y003523D03*
X015224Y003023D03*
X015224Y002523D03*
M02*
