G75*
G70*
%OFA0B0*%
%FSLAX24Y24*%
%IPPOS*%
%LPD*%
%AMOC8*
5,1,8,0,0,1.08239X$1,22.5*
%
%ADD10C,0.0000*%
D10*
X000101Y001173D02*
X000101Y005973D01*
X004251Y005973D01*
X004251Y006023D01*
X004253Y006078D01*
X004258Y006132D01*
X004268Y006186D01*
X004281Y006239D01*
X004297Y006291D01*
X004317Y006342D01*
X004341Y006391D01*
X004367Y006439D01*
X004397Y006484D01*
X004430Y006528D01*
X004466Y006569D01*
X004505Y006608D01*
X004546Y006644D01*
X004590Y006677D01*
X004635Y006707D01*
X004683Y006733D01*
X004732Y006757D01*
X004783Y006777D01*
X004835Y006793D01*
X004888Y006806D01*
X004942Y006816D01*
X004996Y006821D01*
X005051Y006823D01*
X019601Y006823D01*
X019653Y006823D01*
X019704Y006819D01*
X019756Y006811D01*
X019806Y006800D01*
X019856Y006786D01*
X019904Y006767D01*
X019951Y006746D01*
X019997Y006721D01*
X020040Y006693D01*
X020082Y006662D01*
X020121Y006628D01*
X020157Y006591D01*
X020191Y006552D01*
X020222Y006511D01*
X020250Y006467D01*
X020275Y006422D01*
X020296Y006375D01*
X020314Y006326D01*
X020329Y006276D01*
X020340Y006226D01*
X020347Y006175D01*
X020351Y006123D01*
X020351Y001023D01*
X020347Y000971D01*
X020340Y000920D01*
X020329Y000870D01*
X020314Y000820D01*
X020296Y000771D01*
X020275Y000724D01*
X020250Y000679D01*
X020222Y000635D01*
X020191Y000594D01*
X020157Y000555D01*
X020121Y000518D01*
X020082Y000484D01*
X020040Y000453D01*
X019997Y000425D01*
X019951Y000400D01*
X019904Y000379D01*
X019856Y000360D01*
X019806Y000346D01*
X019756Y000335D01*
X019704Y000327D01*
X019653Y000323D01*
X019601Y000323D01*
X005051Y000323D01*
X004996Y000325D01*
X004942Y000330D01*
X004888Y000340D01*
X004835Y000353D01*
X004783Y000369D01*
X004732Y000389D01*
X004683Y000413D01*
X004635Y000439D01*
X004590Y000469D01*
X004546Y000502D01*
X004505Y000538D01*
X004466Y000577D01*
X004430Y000618D01*
X004397Y000662D01*
X004367Y000707D01*
X004341Y000755D01*
X004317Y000804D01*
X004297Y000855D01*
X004281Y000907D01*
X004268Y000960D01*
X004258Y001014D01*
X004253Y001068D01*
X004251Y001123D01*
X004251Y001173D01*
X000101Y001173D01*
X019051Y001123D02*
X019053Y001167D01*
X019059Y001211D01*
X019069Y001254D01*
X019082Y001296D01*
X019099Y001337D01*
X019120Y001376D01*
X019144Y001413D01*
X019171Y001448D01*
X019201Y001480D01*
X019234Y001510D01*
X019270Y001536D01*
X019307Y001560D01*
X019347Y001579D01*
X019388Y001596D01*
X019431Y001608D01*
X019474Y001617D01*
X019518Y001622D01*
X019562Y001623D01*
X019606Y001620D01*
X019650Y001613D01*
X019693Y001602D01*
X019735Y001588D01*
X019775Y001570D01*
X019814Y001548D01*
X019850Y001524D01*
X019884Y001496D01*
X019916Y001465D01*
X019945Y001431D01*
X019971Y001395D01*
X019993Y001357D01*
X020012Y001317D01*
X020027Y001275D01*
X020039Y001233D01*
X020047Y001189D01*
X020051Y001145D01*
X020051Y001101D01*
X020047Y001057D01*
X020039Y001013D01*
X020027Y000971D01*
X020012Y000929D01*
X019993Y000889D01*
X019971Y000851D01*
X019945Y000815D01*
X019916Y000781D01*
X019884Y000750D01*
X019850Y000722D01*
X019814Y000698D01*
X019775Y000676D01*
X019735Y000658D01*
X019693Y000644D01*
X019650Y000633D01*
X019606Y000626D01*
X019562Y000623D01*
X019518Y000624D01*
X019474Y000629D01*
X019431Y000638D01*
X019388Y000650D01*
X019347Y000667D01*
X019307Y000686D01*
X019270Y000710D01*
X019234Y000736D01*
X019201Y000766D01*
X019171Y000798D01*
X019144Y000833D01*
X019120Y000870D01*
X019099Y000909D01*
X019082Y000950D01*
X019069Y000992D01*
X019059Y001035D01*
X019053Y001079D01*
X019051Y001123D01*
M02*
