G75*
G70*
%OFA0B0*%
%FSLAX24Y24*%
%IPPOS*%
%LPD*%
%AMOC8*
5,1,8,0,0,1.08239X$1,22.5*
%
%ADD10C,0.0000*%
%ADD11C,0.0010*%
%ADD12C,0.0060*%
%ADD13C,0.0050*%
%ADD14C,0.0040*%
D10*
X000101Y001173D02*
X000101Y005973D01*
X004251Y005973D01*
X004251Y006023D01*
X004253Y006078D01*
X004258Y006132D01*
X004268Y006186D01*
X004281Y006239D01*
X004297Y006291D01*
X004317Y006342D01*
X004341Y006391D01*
X004367Y006439D01*
X004397Y006484D01*
X004430Y006528D01*
X004466Y006569D01*
X004505Y006608D01*
X004546Y006644D01*
X004590Y006677D01*
X004635Y006707D01*
X004683Y006733D01*
X004732Y006757D01*
X004783Y006777D01*
X004835Y006793D01*
X004888Y006806D01*
X004942Y006816D01*
X004996Y006821D01*
X005051Y006823D01*
X019601Y006823D01*
X019653Y006823D01*
X019704Y006819D01*
X019756Y006811D01*
X019806Y006800D01*
X019856Y006786D01*
X019904Y006767D01*
X019951Y006746D01*
X019997Y006721D01*
X020040Y006693D01*
X020082Y006662D01*
X020121Y006628D01*
X020157Y006591D01*
X020191Y006552D01*
X020222Y006511D01*
X020250Y006467D01*
X020275Y006422D01*
X020296Y006375D01*
X020314Y006326D01*
X020329Y006276D01*
X020340Y006226D01*
X020347Y006175D01*
X020351Y006123D01*
X020351Y001023D01*
X020347Y000971D01*
X020340Y000920D01*
X020329Y000870D01*
X020314Y000820D01*
X020296Y000771D01*
X020275Y000724D01*
X020250Y000679D01*
X020222Y000635D01*
X020191Y000594D01*
X020157Y000555D01*
X020121Y000518D01*
X020082Y000484D01*
X020040Y000453D01*
X019997Y000425D01*
X019951Y000400D01*
X019904Y000379D01*
X019856Y000360D01*
X019806Y000346D01*
X019756Y000335D01*
X019704Y000327D01*
X019653Y000323D01*
X019601Y000323D01*
X005051Y000323D01*
X004996Y000325D01*
X004942Y000330D01*
X004888Y000340D01*
X004835Y000353D01*
X004783Y000369D01*
X004732Y000389D01*
X004683Y000413D01*
X004635Y000439D01*
X004590Y000469D01*
X004546Y000502D01*
X004505Y000538D01*
X004466Y000577D01*
X004430Y000618D01*
X004397Y000662D01*
X004367Y000707D01*
X004341Y000755D01*
X004317Y000804D01*
X004297Y000855D01*
X004281Y000907D01*
X004268Y000960D01*
X004258Y001014D01*
X004253Y001068D01*
X004251Y001123D01*
X004251Y001173D01*
X000101Y001173D01*
X017280Y001815D02*
X017279Y001816D01*
X017280Y001815D02*
X017283Y001815D01*
X017284Y001816D01*
X017284Y001817D01*
X017283Y001819D01*
X017280Y001819D01*
X017279Y001820D01*
X017279Y001821D01*
X017280Y001823D01*
X017283Y001823D01*
X017284Y001821D01*
X017289Y001823D02*
X017291Y001823D01*
X017290Y001823D02*
X017290Y001816D01*
X017289Y001815D01*
X017287Y001815D01*
X017286Y001816D01*
X019051Y001123D02*
X019053Y001167D01*
X019059Y001211D01*
X019069Y001254D01*
X019082Y001296D01*
X019099Y001337D01*
X019120Y001376D01*
X019144Y001413D01*
X019171Y001448D01*
X019201Y001480D01*
X019234Y001510D01*
X019270Y001536D01*
X019307Y001560D01*
X019347Y001579D01*
X019388Y001596D01*
X019431Y001608D01*
X019474Y001617D01*
X019518Y001622D01*
X019562Y001623D01*
X019606Y001620D01*
X019650Y001613D01*
X019693Y001602D01*
X019735Y001588D01*
X019775Y001570D01*
X019814Y001548D01*
X019850Y001524D01*
X019884Y001496D01*
X019916Y001465D01*
X019945Y001431D01*
X019971Y001395D01*
X019993Y001357D01*
X020012Y001317D01*
X020027Y001275D01*
X020039Y001233D01*
X020047Y001189D01*
X020051Y001145D01*
X020051Y001101D01*
X020047Y001057D01*
X020039Y001013D01*
X020027Y000971D01*
X020012Y000929D01*
X019993Y000889D01*
X019971Y000851D01*
X019945Y000815D01*
X019916Y000781D01*
X019884Y000750D01*
X019850Y000722D01*
X019814Y000698D01*
X019775Y000676D01*
X019735Y000658D01*
X019693Y000644D01*
X019650Y000633D01*
X019606Y000626D01*
X019562Y000623D01*
X019518Y000624D01*
X019474Y000629D01*
X019431Y000638D01*
X019388Y000650D01*
X019347Y000667D01*
X019307Y000686D01*
X019270Y000710D01*
X019234Y000736D01*
X019201Y000766D01*
X019171Y000798D01*
X019144Y000833D01*
X019120Y000870D01*
X019099Y000909D01*
X019082Y000950D01*
X019069Y000992D01*
X019059Y001035D01*
X019053Y001079D01*
X019051Y001123D01*
X017568Y005823D02*
X017569Y005824D01*
X017569Y005830D01*
X017568Y005830D02*
X017571Y005830D01*
X017564Y005829D02*
X017562Y005830D01*
X017560Y005830D01*
X017558Y005829D01*
X017558Y005828D01*
X017560Y005826D01*
X017562Y005826D01*
X017564Y005825D01*
X017564Y005824D01*
X017562Y005823D01*
X017560Y005823D01*
X017558Y005824D01*
X017566Y005824D02*
X017567Y005823D01*
X017568Y005823D01*
D11*
X002442Y001703D02*
X002442Y001678D01*
X002417Y001653D01*
X002342Y001653D01*
X002295Y001703D02*
X002270Y001728D01*
X002220Y001728D01*
X002195Y001703D01*
X002195Y001603D01*
X002220Y001578D01*
X002270Y001578D01*
X002295Y001603D01*
X002342Y001578D02*
X002417Y001578D01*
X002442Y001603D01*
X002442Y001628D01*
X002417Y001653D01*
X002442Y001703D02*
X002417Y001728D01*
X002342Y001728D01*
X002342Y001578D01*
X002148Y001653D02*
X002123Y001628D01*
X002048Y001628D01*
X002001Y001628D02*
X002001Y001603D01*
X001975Y001578D01*
X001900Y001578D01*
X001900Y001728D01*
X001975Y001728D01*
X002001Y001703D01*
X002001Y001678D01*
X001975Y001653D01*
X001900Y001653D01*
X001853Y001628D02*
X001853Y001603D01*
X001828Y001578D01*
X001778Y001578D01*
X001753Y001603D01*
X001706Y001603D02*
X001706Y001728D01*
X001753Y001703D02*
X001753Y001678D01*
X001778Y001653D01*
X001828Y001653D01*
X001853Y001628D01*
X001853Y001703D02*
X001828Y001728D01*
X001778Y001728D01*
X001753Y001703D01*
X001606Y001728D02*
X001606Y001603D01*
X001631Y001578D01*
X001681Y001578D01*
X001706Y001603D01*
X001975Y001653D02*
X002001Y001628D01*
X002048Y001578D02*
X002048Y001728D01*
X002123Y001728D01*
X002148Y001703D01*
X002148Y001653D01*
X001853Y005578D02*
X001753Y005578D01*
X001706Y005578D02*
X001606Y005728D01*
X001706Y005728D02*
X001606Y005578D01*
X001753Y005678D02*
X001803Y005728D01*
X001803Y005578D01*
D12*
X007971Y005478D02*
X007971Y004067D01*
X008061Y004468D02*
X008063Y004497D01*
X008069Y004525D01*
X008078Y004552D01*
X008092Y004577D01*
X008108Y004601D01*
X008128Y004621D01*
X008150Y004640D01*
X008174Y004654D01*
X008201Y004666D01*
X008228Y004674D01*
X008257Y004678D01*
X008285Y004678D01*
X008314Y004674D01*
X008341Y004666D01*
X008368Y004654D01*
X008392Y004640D01*
X008414Y004621D01*
X008434Y004601D01*
X008450Y004577D01*
X008464Y004552D01*
X008473Y004525D01*
X008479Y004497D01*
X008481Y004468D01*
X008479Y004439D01*
X008473Y004411D01*
X008464Y004384D01*
X008450Y004359D01*
X008434Y004335D01*
X008414Y004315D01*
X008392Y004296D01*
X008368Y004282D01*
X008341Y004270D01*
X008314Y004262D01*
X008285Y004258D01*
X008257Y004258D01*
X008228Y004262D01*
X008201Y004270D01*
X008174Y004282D01*
X008150Y004296D01*
X008128Y004315D01*
X008108Y004335D01*
X008092Y004359D01*
X008078Y004384D01*
X008069Y004411D01*
X008063Y004439D01*
X008061Y004468D01*
X011331Y004067D02*
X011331Y005478D01*
X016751Y005523D02*
X016751Y006123D01*
X016753Y006140D01*
X016757Y006157D01*
X016764Y006173D01*
X016774Y006187D01*
X016787Y006200D01*
X016801Y006210D01*
X016817Y006217D01*
X016834Y006221D01*
X016851Y006223D01*
X017951Y006223D01*
X017968Y006221D01*
X017985Y006217D01*
X018001Y006210D01*
X018015Y006200D01*
X018028Y006187D01*
X018038Y006173D01*
X018045Y006157D01*
X018049Y006140D01*
X018051Y006123D01*
X018051Y005523D01*
X018049Y005506D01*
X018045Y005489D01*
X018038Y005473D01*
X018028Y005459D01*
X018015Y005446D01*
X018001Y005436D01*
X017985Y005429D01*
X017968Y005425D01*
X017951Y005423D01*
X016851Y005423D01*
X016834Y005425D01*
X016817Y005429D01*
X016801Y005436D01*
X016787Y005446D01*
X016774Y005459D01*
X016764Y005473D01*
X016757Y005489D01*
X016753Y005506D01*
X016751Y005523D01*
X016901Y002223D02*
X018001Y002223D01*
X018018Y002221D01*
X018035Y002217D01*
X018051Y002210D01*
X018065Y002200D01*
X018078Y002187D01*
X018088Y002173D01*
X018095Y002157D01*
X018099Y002140D01*
X018101Y002123D01*
X018101Y001523D01*
X018099Y001506D01*
X018095Y001489D01*
X018088Y001473D01*
X018078Y001459D01*
X018065Y001446D01*
X018051Y001436D01*
X018035Y001429D01*
X018018Y001425D01*
X018001Y001423D01*
X016901Y001423D01*
X016884Y001425D01*
X016867Y001429D01*
X016851Y001436D01*
X016837Y001446D01*
X016824Y001459D01*
X016814Y001473D01*
X016807Y001489D01*
X016803Y001506D01*
X016801Y001523D01*
X016801Y002123D01*
X016803Y002140D01*
X016807Y002157D01*
X016814Y002173D01*
X016824Y002187D01*
X016837Y002200D01*
X016851Y002210D01*
X016867Y002217D01*
X016884Y002221D01*
X016901Y002223D01*
X006461Y001583D02*
X006461Y001263D01*
X006241Y001263D01*
X005561Y001263D02*
X005341Y001263D01*
X005341Y001583D01*
D13*
X009967Y001211D02*
X009967Y001093D01*
X011935Y001093D01*
X011935Y001211D01*
X011935Y002234D02*
X011935Y002352D01*
X009967Y002352D01*
X009967Y002234D01*
X009966Y004523D02*
X009665Y004523D01*
X009747Y004523D02*
X009747Y004973D01*
X009815Y004973D02*
X009815Y004523D01*
X010057Y004523D02*
X010207Y004523D01*
X010132Y004523D02*
X010132Y004973D01*
X010057Y004973D02*
X010207Y004973D01*
X010364Y004973D02*
X010664Y004523D01*
X010664Y004973D01*
X010824Y004973D02*
X010824Y004898D01*
X010974Y004748D01*
X010974Y004523D01*
X011510Y004523D02*
X011510Y004973D01*
X011284Y004748D01*
X011585Y004748D01*
X011745Y004748D02*
X012045Y004748D01*
X012205Y004748D02*
X012505Y004748D01*
X012666Y004823D02*
X012741Y004748D01*
X012891Y004748D01*
X012966Y004673D01*
X012966Y004598D01*
X012891Y004523D01*
X012741Y004523D01*
X012666Y004598D01*
X013126Y004598D02*
X013201Y004523D01*
X013351Y004523D01*
X013426Y004598D01*
X013426Y004673D01*
X013351Y004748D01*
X013201Y004748D01*
X013126Y004823D01*
X013126Y004898D01*
X013201Y004973D01*
X013351Y004973D01*
X013426Y004898D01*
X013586Y004973D02*
X013586Y004598D01*
X013661Y004523D01*
X013811Y004523D01*
X013886Y004598D01*
X013886Y004973D01*
X012966Y004898D02*
X012891Y004973D01*
X012741Y004973D01*
X012666Y004898D01*
X012666Y004823D01*
X011970Y004973D02*
X011745Y004748D01*
X011970Y004523D02*
X011970Y004973D01*
X011124Y004973D02*
X011124Y004898D01*
X010974Y004748D01*
X010364Y004523D02*
X010364Y004973D01*
X009897Y004973D02*
X009596Y004973D01*
X009505Y004898D02*
X009430Y004973D01*
X009280Y004973D01*
X009205Y004898D01*
X009205Y004598D01*
X009280Y004523D01*
X009430Y004523D01*
X009505Y004598D01*
X009286Y004523D02*
X009286Y004973D01*
X009136Y004973D02*
X009436Y004973D01*
X009665Y004823D02*
X009815Y004973D01*
X009048Y004973D02*
X008898Y004973D01*
X008826Y004973D02*
X008976Y004823D01*
X008976Y004523D01*
X008973Y004523D02*
X008973Y004973D01*
X008826Y004973D02*
X008676Y004823D01*
X008676Y004523D01*
X008898Y004523D02*
X009048Y004523D01*
X008976Y004748D02*
X008676Y004748D01*
X016776Y006373D02*
X016851Y006298D01*
X016926Y006298D01*
X017001Y006373D01*
X017001Y006748D01*
X016926Y006748D02*
X017076Y006748D01*
X017236Y006673D02*
X017311Y006748D01*
X017461Y006748D01*
X017536Y006673D01*
X017536Y006598D01*
X017236Y006298D01*
X017536Y006298D01*
X018155Y002098D02*
X018305Y002098D01*
X018230Y002098D02*
X018230Y001723D01*
X018155Y001648D01*
X018080Y001648D01*
X018005Y001723D01*
X018465Y001648D02*
X018766Y001648D01*
X018616Y001648D02*
X018616Y002098D01*
X018465Y001948D01*
D14*
X018409Y001949D02*
X018409Y002026D01*
X018485Y002103D01*
X018639Y002103D01*
X018716Y002026D01*
X018869Y002103D02*
X019099Y002103D01*
X019176Y002026D01*
X019176Y001873D01*
X019099Y001796D01*
X018869Y001796D01*
X018716Y001796D02*
X018716Y001719D01*
X018639Y001643D01*
X018485Y001643D01*
X018409Y001719D01*
X018255Y001643D02*
X018102Y001643D01*
X018179Y001643D02*
X018179Y002103D01*
X018255Y002103D02*
X018102Y002103D01*
X017948Y002026D02*
X017948Y001873D01*
X017872Y001796D01*
X017641Y001796D01*
X017488Y001796D02*
X017488Y002103D01*
X017641Y002103D02*
X017872Y002103D01*
X017948Y002026D01*
X017641Y002103D02*
X017641Y001643D01*
X017795Y001796D02*
X017948Y001643D01*
X017488Y001796D02*
X017335Y001643D01*
X017181Y001796D01*
X017181Y002103D01*
X017028Y001949D02*
X016874Y002103D01*
X016721Y001949D01*
X016721Y001643D01*
X016540Y001773D02*
X016233Y001773D01*
X016463Y002003D01*
X016463Y001543D01*
X016079Y001619D02*
X016003Y001543D01*
X015849Y001543D01*
X015773Y001619D01*
X016079Y001926D01*
X016079Y001619D01*
X015773Y001619D02*
X015773Y001926D01*
X015849Y002003D01*
X016003Y002003D01*
X016079Y001926D01*
X015567Y002069D02*
X015491Y001993D01*
X015337Y001993D01*
X015260Y002069D01*
X015567Y002376D01*
X015567Y002069D01*
X015466Y002003D02*
X015466Y001543D01*
X015619Y001543D02*
X015312Y001543D01*
X015159Y001619D02*
X015082Y001543D01*
X014929Y001543D01*
X014852Y001619D01*
X015159Y001926D01*
X015159Y001619D01*
X014852Y001619D02*
X014852Y001926D01*
X014929Y002003D01*
X015082Y002003D01*
X015159Y001926D01*
X015312Y001849D02*
X015466Y002003D01*
X015260Y002069D02*
X015260Y002376D01*
X015337Y002453D01*
X015491Y002453D01*
X015567Y002376D01*
X014698Y001926D02*
X014622Y002003D01*
X014391Y002003D01*
X014391Y001543D01*
X014622Y001543D01*
X014698Y001619D01*
X014698Y001696D01*
X014622Y001773D01*
X014391Y001773D01*
X014622Y001773D02*
X014698Y001849D01*
X014698Y001926D01*
X014238Y002003D02*
X013931Y001543D01*
X014238Y001543D02*
X013931Y002003D01*
X013778Y002003D02*
X013471Y002003D01*
X013624Y002003D02*
X013624Y001543D01*
X013588Y001549D02*
X013588Y001626D01*
X013511Y001703D01*
X013358Y001703D01*
X013281Y001626D01*
X013128Y001626D02*
X013051Y001703D01*
X012897Y001703D01*
X012821Y001626D01*
X012821Y001319D01*
X012897Y001243D01*
X013051Y001243D01*
X013128Y001319D01*
X013281Y001243D02*
X013588Y001549D01*
X013588Y001243D02*
X013281Y001243D01*
X012951Y000953D02*
X013028Y000876D01*
X013028Y000799D01*
X012951Y000723D01*
X012797Y000723D01*
X012721Y000799D01*
X012721Y000876D01*
X012797Y000953D01*
X012951Y000953D01*
X013181Y000799D02*
X013411Y000799D01*
X013488Y000723D01*
X013488Y000569D01*
X013411Y000493D01*
X013181Y000493D01*
X013028Y000569D02*
X012951Y000493D01*
X012797Y000493D01*
X012721Y000569D01*
X012721Y000646D01*
X012797Y000723D01*
X012951Y000723D02*
X013028Y000646D01*
X013028Y000569D01*
X013181Y000339D02*
X013181Y000799D01*
X014800Y000646D02*
X015030Y000646D01*
X015107Y000723D01*
X015107Y000876D01*
X015030Y000953D01*
X014800Y000953D01*
X014800Y000493D01*
X014953Y000646D02*
X015107Y000493D01*
X015260Y000493D02*
X015260Y000569D01*
X015567Y000876D01*
X015567Y000953D01*
X015260Y000953D01*
X017028Y001643D02*
X017028Y001949D01*
X017028Y001873D02*
X016721Y001873D01*
X018409Y001949D02*
X018485Y001873D01*
X018639Y001873D01*
X018716Y001796D01*
X018869Y001643D02*
X018869Y002103D01*
X019329Y002026D02*
X019329Y001949D01*
X019406Y001873D01*
X019560Y001873D01*
X019636Y001796D01*
X019636Y001719D01*
X019560Y001643D01*
X019406Y001643D01*
X019329Y001719D01*
X019790Y001643D02*
X019790Y002103D01*
X019943Y001949D01*
X020097Y002103D01*
X020097Y001643D01*
X020250Y001643D02*
X020480Y001643D01*
X020557Y001719D01*
X020557Y002026D01*
X020480Y002103D01*
X020250Y002103D01*
X020250Y001643D01*
X019636Y002026D02*
X019560Y002103D01*
X019406Y002103D01*
X019329Y002026D01*
X018481Y003143D02*
X018020Y003449D01*
X018097Y003603D02*
X018020Y003680D01*
X018020Y003833D01*
X018097Y003910D01*
X018174Y003910D01*
X018481Y003603D01*
X018481Y003910D01*
X018481Y003449D02*
X018020Y003143D01*
X016528Y004643D02*
X016221Y004643D01*
X016374Y004643D02*
X016374Y005103D01*
X016221Y004949D01*
X014545Y006119D02*
X014468Y006043D01*
X014315Y006043D01*
X014238Y006119D01*
X014085Y006119D02*
X014008Y006043D01*
X013854Y006043D01*
X013778Y006119D01*
X013778Y006426D01*
X013854Y006503D01*
X014008Y006503D01*
X014085Y006426D01*
X014238Y006426D02*
X014315Y006503D01*
X014468Y006503D01*
X014545Y006426D01*
X014545Y006349D01*
X014468Y006273D01*
X014545Y006196D01*
X014545Y006119D01*
X014468Y006273D02*
X014391Y006273D01*
X013624Y006503D02*
X013471Y006503D01*
X013547Y006503D02*
X013547Y006043D01*
X013471Y006043D02*
X013624Y006043D01*
X007329Y004776D02*
X007329Y004469D01*
X007252Y004393D01*
X007098Y004393D01*
X007022Y004469D01*
X006868Y004469D02*
X006868Y004393D01*
X006791Y004393D01*
X006791Y004469D01*
X006868Y004469D01*
X006731Y004390D02*
X006654Y004390D01*
X006654Y004313D01*
X006731Y004313D01*
X006731Y004390D01*
X006638Y004469D02*
X006638Y004776D01*
X006561Y004853D01*
X006408Y004853D01*
X006331Y004776D01*
X006331Y004699D01*
X006408Y004623D01*
X006638Y004623D01*
X006654Y004543D02*
X006731Y004620D01*
X006731Y004774D01*
X006654Y004850D01*
X006347Y004850D01*
X006270Y004774D01*
X006270Y004620D01*
X006347Y004543D01*
X006424Y004543D01*
X006501Y004620D01*
X006501Y004850D01*
X006101Y004853D02*
X005871Y004623D01*
X006178Y004623D01*
X006331Y004469D02*
X006408Y004393D01*
X006561Y004393D01*
X006638Y004469D01*
X007022Y004699D02*
X007098Y004623D01*
X007329Y004623D01*
X007022Y004699D02*
X007022Y004776D01*
X007098Y004853D01*
X007252Y004853D01*
X007329Y004776D01*
X006101Y004853D02*
X006101Y004393D01*
X006020Y004189D02*
X006327Y003882D01*
X006347Y003853D02*
X006424Y003853D01*
X006501Y003930D01*
X006501Y004160D01*
X006481Y004189D02*
X006251Y003959D01*
X006270Y003930D02*
X006347Y003853D01*
X006270Y003930D02*
X006270Y004083D01*
X006347Y004160D01*
X006654Y004160D01*
X006731Y004083D01*
X006731Y003930D01*
X006654Y003853D01*
X006481Y003882D02*
X006020Y003882D01*
X005981Y003853D02*
X005674Y004160D01*
X005597Y004160D01*
X005520Y004083D01*
X005520Y003930D01*
X005597Y003853D01*
X005597Y003699D02*
X005751Y003699D01*
X005827Y003623D01*
X005827Y003393D01*
X005981Y003393D02*
X005520Y003393D01*
X005520Y003623D01*
X005597Y003699D01*
X005827Y003546D02*
X005981Y003699D01*
X006020Y003652D02*
X006097Y003729D01*
X006404Y003422D01*
X006481Y003498D01*
X006481Y003652D01*
X006404Y003729D01*
X006097Y003729D01*
X006020Y003652D02*
X006020Y003498D01*
X006097Y003422D01*
X006404Y003422D01*
X006501Y003393D02*
X006501Y003699D01*
X006731Y003623D02*
X006270Y003623D01*
X006501Y003393D01*
X006820Y003322D02*
X006820Y003552D01*
X006897Y003629D01*
X007051Y003629D01*
X007127Y003552D01*
X007127Y003322D01*
X007281Y003322D02*
X006820Y003322D01*
X007127Y003475D02*
X007281Y003629D01*
X007051Y003782D02*
X007051Y004089D01*
X007281Y004012D02*
X006820Y004012D01*
X007051Y003782D01*
X005981Y003853D02*
X005981Y004160D01*
X005031Y003312D02*
X004954Y003389D01*
X004877Y003389D01*
X004801Y003312D01*
X004801Y003236D01*
X004647Y003082D02*
X004570Y003159D01*
X004570Y003312D01*
X004647Y003389D01*
X004724Y003389D01*
X004801Y003312D01*
X005031Y003312D02*
X005031Y003159D01*
X004954Y003082D01*
X005031Y002929D02*
X004877Y002775D01*
X004877Y002852D02*
X004877Y002622D01*
X005031Y002622D02*
X004570Y002622D01*
X004570Y002852D01*
X004647Y002929D01*
X004801Y002929D01*
X004877Y002852D01*
X005290Y002676D02*
X005366Y002753D01*
X005520Y002753D01*
X005597Y002676D01*
X005597Y002599D01*
X005520Y002523D01*
X005597Y002446D01*
X005597Y002369D01*
X005520Y002293D01*
X005366Y002293D01*
X005290Y002369D01*
X005443Y002523D02*
X005520Y002523D01*
X005750Y002446D02*
X005903Y002293D01*
X006057Y002446D01*
X006057Y002753D01*
X006210Y002676D02*
X006287Y002753D01*
X006441Y002753D01*
X006517Y002676D01*
X006517Y002599D01*
X006441Y002523D01*
X006517Y002446D01*
X006517Y002369D01*
X006441Y002293D01*
X006287Y002293D01*
X006210Y002369D01*
X006364Y002523D02*
X006441Y002523D01*
X005750Y002446D02*
X005750Y002753D01*
X006020Y003115D02*
X006174Y002961D01*
X006481Y002961D02*
X006481Y003268D01*
X006481Y003115D02*
X006020Y003115D01*
X004281Y003132D02*
X003820Y003132D01*
X004051Y003209D02*
X004281Y003439D01*
X004127Y003132D02*
X003820Y003439D01*
X004281Y002979D02*
X004281Y002672D01*
X003974Y002672D02*
X003820Y002825D01*
X004281Y002825D01*
X006020Y002062D02*
X006097Y002139D01*
X006404Y002139D01*
X006481Y002062D01*
X006481Y001909D01*
X006404Y001832D01*
X006251Y001909D02*
X006251Y002139D01*
X006020Y002062D02*
X006020Y001909D01*
X006097Y001832D01*
X006174Y001832D01*
X006251Y001909D01*
X006770Y002039D02*
X006847Y001886D01*
X007001Y001732D01*
X007001Y001962D01*
X007077Y002039D01*
X007154Y002039D01*
X007231Y001962D01*
X007231Y001809D01*
X007154Y001732D01*
X007001Y001732D01*
X007001Y001579D02*
X006847Y001579D01*
X006770Y001502D01*
X006770Y001272D01*
X007231Y001272D01*
X007124Y001372D02*
X006970Y001525D01*
X007431Y001525D01*
X007231Y001579D02*
X007077Y001425D01*
X007077Y001502D02*
X007077Y001272D01*
X007431Y001372D02*
X007431Y001679D01*
X007720Y001809D02*
X007720Y001962D01*
X007797Y002039D01*
X007874Y002039D01*
X007951Y001962D01*
X008027Y002039D01*
X008104Y002039D01*
X008181Y001962D01*
X008181Y001809D01*
X008104Y001732D01*
X008074Y001679D02*
X008151Y001602D01*
X008151Y001448D01*
X008074Y001372D01*
X007997Y001372D01*
X007920Y001448D01*
X007920Y001602D01*
X007997Y001679D01*
X008074Y001679D01*
X008104Y001579D02*
X008181Y001502D01*
X008181Y001348D01*
X008104Y001272D01*
X007797Y001272D01*
X007720Y001348D01*
X007720Y001502D01*
X007797Y001579D01*
X008151Y001602D02*
X008227Y001679D01*
X008304Y001679D01*
X008381Y001602D01*
X008381Y001448D01*
X008304Y001372D01*
X008227Y001372D01*
X008151Y001448D01*
X008670Y001448D02*
X008747Y001372D01*
X009054Y001372D01*
X009131Y001448D01*
X009131Y001602D01*
X009054Y001679D01*
X008747Y001679D02*
X008670Y001602D01*
X008670Y001448D01*
X007797Y001732D02*
X007720Y001809D01*
X007951Y001886D02*
X007951Y001962D01*
X008074Y002062D02*
X008074Y001832D01*
X008534Y001832D01*
X008381Y001832D02*
X008381Y002062D01*
X008304Y002139D01*
X008151Y002139D01*
X008074Y002062D01*
X008670Y001986D02*
X009131Y001986D01*
X009131Y002139D02*
X009131Y001832D01*
X008824Y001832D02*
X008670Y001986D01*
X009719Y001903D02*
X010026Y001443D01*
X009719Y001443D02*
X010026Y001903D01*
X010179Y001903D02*
X010486Y001903D01*
X010333Y001903D02*
X010333Y001443D01*
X010640Y001443D02*
X010640Y001749D01*
X010793Y001903D01*
X010946Y001749D01*
X010946Y001443D01*
X011100Y001443D02*
X011407Y001443D01*
X011560Y001443D02*
X011867Y001443D01*
X011714Y001443D02*
X011714Y001903D01*
X011560Y001749D01*
X011100Y001903D02*
X011100Y001443D01*
X010946Y001673D02*
X010640Y001673D01*
X010590Y002743D02*
X010590Y003203D01*
X010743Y003049D01*
X010896Y003203D01*
X010896Y002743D01*
X011050Y002743D02*
X011050Y003203D01*
X011020Y003273D02*
X011097Y003349D01*
X011251Y003349D01*
X011327Y003273D01*
X011327Y003043D01*
X011357Y002973D02*
X011050Y002973D01*
X011020Y003043D02*
X011020Y003273D01*
X011327Y003196D02*
X011481Y003349D01*
X011404Y003503D02*
X011481Y003580D01*
X011481Y003733D01*
X011404Y003810D01*
X011251Y003810D01*
X011174Y003733D01*
X011174Y003656D01*
X011251Y003503D01*
X011020Y003503D01*
X011020Y003810D01*
X012520Y003273D02*
X012597Y003349D01*
X012904Y003043D01*
X012981Y003119D01*
X012981Y003273D01*
X012904Y003349D01*
X012597Y003349D01*
X012520Y003273D02*
X012520Y003119D01*
X012597Y003043D01*
X012904Y003043D01*
X011817Y003049D02*
X011510Y002743D01*
X011817Y002743D01*
X011357Y002743D02*
X011357Y003203D01*
X011481Y003043D02*
X011020Y003043D01*
X011510Y003049D02*
X011817Y003049D01*
X010436Y003126D02*
X010436Y002819D01*
X010359Y002743D01*
X010206Y002743D01*
X010129Y002819D01*
X010436Y003126D01*
X010359Y003203D01*
X010206Y003203D01*
X010129Y003126D01*
X010129Y002819D01*
X009976Y002743D02*
X009669Y002743D01*
X009976Y003049D01*
X009976Y003126D01*
X009899Y003203D01*
X009746Y003203D01*
X009669Y003126D01*
X007431Y002139D02*
X007124Y002139D01*
X007431Y002139D02*
X007431Y001909D01*
X007354Y001832D01*
X007124Y001832D01*
X006481Y001602D02*
X006404Y001679D01*
X006097Y001679D01*
X006020Y001602D01*
X006020Y001448D01*
X006097Y001372D01*
X006174Y001372D01*
X006251Y001448D01*
X006251Y001679D01*
X006481Y001602D02*
X006481Y001448D01*
X006404Y001372D01*
X006251Y001218D02*
X006251Y000911D01*
X006020Y001142D01*
X006481Y001142D01*
X007001Y001579D02*
X007077Y001502D01*
X006441Y000753D02*
X006287Y000753D01*
X006210Y000676D01*
X006057Y000676D02*
X005980Y000753D01*
X005827Y000753D01*
X005750Y000676D01*
X005750Y000369D01*
X005827Y000293D01*
X005980Y000293D01*
X006057Y000369D01*
X006210Y000293D02*
X006517Y000599D01*
X006517Y000676D01*
X006441Y000753D01*
X005597Y000753D02*
X005443Y000753D01*
X005520Y000753D02*
X005520Y000293D01*
X005443Y000293D02*
X005597Y000293D01*
X006210Y000293D02*
X006517Y000293D01*
X006585Y005143D02*
X006585Y005603D01*
X006431Y005449D01*
X006278Y005373D02*
X006201Y005296D01*
X005971Y005296D01*
X006124Y005296D02*
X006278Y005143D01*
X006431Y005143D02*
X006738Y005143D01*
X006278Y005373D02*
X006278Y005526D01*
X006201Y005603D01*
X005971Y005603D01*
X005971Y005143D01*
M02*
