G75*
G70*
%OFA0B0*%
%FSLAX24Y24*%
%IPPOS*%
%LPD*%
%AMOC8*
5,1,8,0,0,1.08239X$1,22.5*
%
%ADD10R,0.3033X0.0671*%
%ADD11R,0.2639X0.0474*%
%ADD12R,0.0320X0.0950*%
%ADD13R,0.0580X0.1080*%
%ADD14R,0.0395X0.0710*%
%ADD15R,0.0790X0.0710*%
%ADD16R,0.0710X0.0520*%
%ADD17R,0.0520X0.0710*%
%ADD18R,0.1064X0.1261*%
%ADD19R,0.0789X0.0710*%
D10*
X002022Y002223D03*
X002022Y004979D03*
D11*
X002219Y003994D03*
X002219Y003207D03*
D12*
X008201Y003776D03*
X008701Y003776D03*
X009201Y003776D03*
X009701Y003776D03*
X010201Y003776D03*
X010701Y003776D03*
X011201Y003776D03*
X011201Y005826D03*
X010701Y005826D03*
X010201Y005826D03*
X009701Y005826D03*
X009201Y005826D03*
X008701Y005826D03*
X008201Y005826D03*
D13*
X014501Y005101D03*
X015501Y005101D03*
X016501Y005101D03*
X016501Y002951D03*
X015501Y002951D03*
X014501Y002951D03*
D14*
X005001Y004131D03*
X004101Y004670D03*
X005001Y005470D03*
X004101Y003331D03*
D15*
X005001Y002041D03*
X005001Y003161D03*
X005901Y003541D03*
X006801Y003541D03*
X006801Y004661D03*
X005901Y004661D03*
X012701Y004661D03*
X012701Y003541D03*
X013601Y002661D03*
X013601Y001541D03*
D16*
X013601Y004691D03*
X013601Y005311D03*
D17*
X015791Y001301D03*
X016411Y001301D03*
D18*
X011630Y001851D03*
X009071Y001851D03*
D19*
X008001Y001550D03*
X006801Y001550D03*
X005901Y001550D03*
X005901Y002652D03*
X006801Y002652D03*
X008001Y002652D03*
X012701Y002652D03*
X012701Y001550D03*
M02*
