G75*
G70*
%OFA0B0*%
%FSLAX24Y24*%
%IPPOS*%
%LPD*%
%AMOC8*
5,1,8,0,0,1.08239X$1,22.5*
%
%ADD10C,0.0000*%
D10*
X000101Y001201D02*
X000101Y005997D01*
X003747Y005997D01*
X003747Y006047D01*
X003749Y006111D01*
X003755Y006174D01*
X003764Y006237D01*
X003778Y006299D01*
X003795Y006361D01*
X003815Y006421D01*
X003840Y006480D01*
X003868Y006537D01*
X003899Y006592D01*
X003934Y006646D01*
X003971Y006697D01*
X004012Y006746D01*
X004056Y006792D01*
X004102Y006836D01*
X004151Y006877D01*
X004202Y006914D01*
X004256Y006949D01*
X004311Y006980D01*
X004368Y007008D01*
X004427Y007033D01*
X004487Y007053D01*
X004549Y007070D01*
X004611Y007084D01*
X004674Y007093D01*
X004737Y007099D01*
X004801Y007101D01*
X016651Y007101D01*
X016711Y007099D01*
X016770Y007094D01*
X016829Y007084D01*
X016887Y007071D01*
X016945Y007055D01*
X017001Y007034D01*
X017055Y007011D01*
X017109Y006983D01*
X017160Y006953D01*
X017209Y006920D01*
X017257Y006883D01*
X017301Y006844D01*
X017344Y006801D01*
X017383Y006757D01*
X017420Y006709D01*
X017453Y006660D01*
X017483Y006609D01*
X017511Y006555D01*
X017534Y006501D01*
X017555Y006445D01*
X017571Y006387D01*
X017584Y006329D01*
X017594Y006270D01*
X017599Y006211D01*
X017601Y006151D01*
X017601Y001051D01*
X016251Y001051D02*
X016253Y001091D01*
X016259Y001130D01*
X016269Y001169D01*
X016282Y001206D01*
X016300Y001242D01*
X016321Y001276D01*
X016345Y001308D01*
X016372Y001337D01*
X016402Y001364D01*
X016434Y001387D01*
X016469Y001407D01*
X016505Y001423D01*
X016543Y001436D01*
X016582Y001445D01*
X016621Y001450D01*
X016661Y001451D01*
X016701Y001448D01*
X016740Y001441D01*
X016778Y001430D01*
X016816Y001416D01*
X016851Y001397D01*
X016884Y001376D01*
X016916Y001351D01*
X016944Y001323D01*
X016970Y001293D01*
X016992Y001260D01*
X017011Y001225D01*
X017027Y001188D01*
X017039Y001150D01*
X017047Y001111D01*
X017051Y001071D01*
X017051Y001031D01*
X017047Y000991D01*
X017039Y000952D01*
X017027Y000914D01*
X017011Y000877D01*
X016992Y000842D01*
X016970Y000809D01*
X016944Y000779D01*
X016916Y000751D01*
X016884Y000726D01*
X016851Y000705D01*
X016816Y000686D01*
X016778Y000672D01*
X016740Y000661D01*
X016701Y000654D01*
X016661Y000651D01*
X016621Y000652D01*
X016582Y000657D01*
X016543Y000666D01*
X016505Y000679D01*
X016469Y000695D01*
X016434Y000715D01*
X016402Y000738D01*
X016372Y000765D01*
X016345Y000794D01*
X016321Y000826D01*
X016300Y000860D01*
X016282Y000896D01*
X016269Y000933D01*
X016259Y000972D01*
X016253Y001011D01*
X016251Y001051D01*
X016651Y000101D02*
X016711Y000103D01*
X016770Y000108D01*
X016829Y000118D01*
X016887Y000131D01*
X016945Y000147D01*
X017001Y000168D01*
X017055Y000191D01*
X017109Y000219D01*
X017160Y000249D01*
X017209Y000282D01*
X017257Y000319D01*
X017301Y000358D01*
X017344Y000401D01*
X017383Y000445D01*
X017420Y000493D01*
X017453Y000542D01*
X017483Y000593D01*
X017511Y000647D01*
X017534Y000701D01*
X017555Y000757D01*
X017571Y000815D01*
X017584Y000873D01*
X017594Y000932D01*
X017599Y000991D01*
X017601Y001051D01*
X016651Y000101D02*
X004851Y000101D01*
X004787Y000103D01*
X004723Y000108D01*
X004660Y000118D01*
X004597Y000131D01*
X004536Y000147D01*
X004475Y000167D01*
X004415Y000191D01*
X004357Y000218D01*
X004301Y000248D01*
X004247Y000282D01*
X004194Y000319D01*
X004144Y000358D01*
X004096Y000401D01*
X004051Y000446D01*
X004008Y000494D01*
X003969Y000544D01*
X003932Y000597D01*
X003898Y000651D01*
X003868Y000707D01*
X003841Y000765D01*
X003817Y000825D01*
X003797Y000886D01*
X003781Y000947D01*
X003768Y001010D01*
X003758Y001073D01*
X003753Y001137D01*
X003751Y001201D01*
X000101Y001201D01*
M02*
