G75*
G70*
%OFA0B0*%
%FSLAX24Y24*%
%IPPOS*%
%LPD*%
%AMOC8*
5,1,8,0,0,1.08239X$1,22.5*
%
%ADD10C,0.0000*%
%ADD11C,0.0010*%
%ADD12C,0.0050*%
%ADD13C,0.0060*%
%ADD14C,0.0040*%
D10*
X000101Y001201D02*
X000101Y005997D01*
X003747Y005997D01*
X003747Y006047D01*
X003749Y006111D01*
X003755Y006174D01*
X003764Y006237D01*
X003778Y006299D01*
X003795Y006361D01*
X003815Y006421D01*
X003840Y006480D01*
X003868Y006537D01*
X003899Y006592D01*
X003934Y006646D01*
X003971Y006697D01*
X004012Y006746D01*
X004056Y006792D01*
X004102Y006836D01*
X004151Y006877D01*
X004202Y006914D01*
X004256Y006949D01*
X004311Y006980D01*
X004368Y007008D01*
X004427Y007033D01*
X004487Y007053D01*
X004549Y007070D01*
X004611Y007084D01*
X004674Y007093D01*
X004737Y007099D01*
X004801Y007101D01*
X016651Y007101D01*
X016711Y007099D01*
X016770Y007094D01*
X016829Y007084D01*
X016887Y007071D01*
X016945Y007055D01*
X017001Y007034D01*
X017055Y007011D01*
X017109Y006983D01*
X017160Y006953D01*
X017209Y006920D01*
X017257Y006883D01*
X017301Y006844D01*
X017344Y006801D01*
X017383Y006757D01*
X017420Y006709D01*
X017453Y006660D01*
X017483Y006609D01*
X017511Y006555D01*
X017534Y006501D01*
X017555Y006445D01*
X017571Y006387D01*
X017584Y006329D01*
X017594Y006270D01*
X017599Y006211D01*
X017601Y006151D01*
X017601Y001051D01*
X016251Y001051D02*
X016253Y001091D01*
X016259Y001130D01*
X016269Y001169D01*
X016282Y001206D01*
X016300Y001242D01*
X016321Y001276D01*
X016345Y001308D01*
X016372Y001337D01*
X016402Y001364D01*
X016434Y001387D01*
X016469Y001407D01*
X016505Y001423D01*
X016543Y001436D01*
X016582Y001445D01*
X016621Y001450D01*
X016661Y001451D01*
X016701Y001448D01*
X016740Y001441D01*
X016778Y001430D01*
X016816Y001416D01*
X016851Y001397D01*
X016884Y001376D01*
X016916Y001351D01*
X016944Y001323D01*
X016970Y001293D01*
X016992Y001260D01*
X017011Y001225D01*
X017027Y001188D01*
X017039Y001150D01*
X017047Y001111D01*
X017051Y001071D01*
X017051Y001031D01*
X017047Y000991D01*
X017039Y000952D01*
X017027Y000914D01*
X017011Y000877D01*
X016992Y000842D01*
X016970Y000809D01*
X016944Y000779D01*
X016916Y000751D01*
X016884Y000726D01*
X016851Y000705D01*
X016816Y000686D01*
X016778Y000672D01*
X016740Y000661D01*
X016701Y000654D01*
X016661Y000651D01*
X016621Y000652D01*
X016582Y000657D01*
X016543Y000666D01*
X016505Y000679D01*
X016469Y000695D01*
X016434Y000715D01*
X016402Y000738D01*
X016372Y000765D01*
X016345Y000794D01*
X016321Y000826D01*
X016300Y000860D01*
X016282Y000896D01*
X016269Y000933D01*
X016259Y000972D01*
X016253Y001011D01*
X016251Y001051D01*
X016651Y000101D02*
X016711Y000103D01*
X016770Y000108D01*
X016829Y000118D01*
X016887Y000131D01*
X016945Y000147D01*
X017001Y000168D01*
X017055Y000191D01*
X017109Y000219D01*
X017160Y000249D01*
X017209Y000282D01*
X017257Y000319D01*
X017301Y000358D01*
X017344Y000401D01*
X017383Y000445D01*
X017420Y000493D01*
X017453Y000542D01*
X017483Y000593D01*
X017511Y000647D01*
X017534Y000701D01*
X017555Y000757D01*
X017571Y000815D01*
X017584Y000873D01*
X017594Y000932D01*
X017599Y000991D01*
X017601Y001051D01*
X016651Y000101D02*
X004851Y000101D01*
X004787Y000103D01*
X004723Y000108D01*
X004660Y000118D01*
X004597Y000131D01*
X004536Y000147D01*
X004475Y000167D01*
X004415Y000191D01*
X004357Y000218D01*
X004301Y000248D01*
X004247Y000282D01*
X004194Y000319D01*
X004144Y000358D01*
X004096Y000401D01*
X004051Y000446D01*
X004008Y000494D01*
X003969Y000544D01*
X003932Y000597D01*
X003898Y000651D01*
X003868Y000707D01*
X003841Y000765D01*
X003817Y000825D01*
X003797Y000886D01*
X003781Y000947D01*
X003768Y001010D01*
X003758Y001073D01*
X003753Y001137D01*
X003751Y001201D01*
X000101Y001201D01*
X013201Y004830D02*
X013202Y004829D01*
X013203Y004829D01*
X013205Y004830D01*
X013205Y004833D01*
X013206Y004834D01*
X013207Y004834D01*
X013209Y004833D01*
X013209Y004830D01*
X013207Y004829D01*
X013201Y004830D02*
X013201Y004833D01*
X013202Y004834D01*
X013201Y004839D02*
X013201Y004841D01*
X013201Y004840D02*
X013207Y004840D01*
X013209Y004839D01*
X013209Y004837D01*
X013207Y004836D01*
X014130Y001501D02*
X014129Y001499D01*
X014129Y001498D01*
X014130Y001497D01*
X014133Y001497D01*
X014134Y001496D01*
X014134Y001494D01*
X014133Y001493D01*
X014130Y001493D01*
X014129Y001494D01*
X014130Y001501D02*
X014133Y001501D01*
X014134Y001499D01*
X014139Y001501D02*
X014141Y001501D01*
X014140Y001501D02*
X014140Y001494D01*
X014139Y001493D01*
X014137Y001493D01*
X014136Y001494D01*
D11*
X002442Y001631D02*
X002417Y001606D01*
X002342Y001606D01*
X002342Y001756D01*
X002417Y001756D01*
X002442Y001731D01*
X002442Y001706D01*
X002417Y001681D01*
X002342Y001681D01*
X002295Y001731D02*
X002270Y001756D01*
X002220Y001756D01*
X002195Y001731D01*
X002195Y001631D01*
X002220Y001606D01*
X002270Y001606D01*
X002295Y001631D01*
X002417Y001681D02*
X002442Y001656D01*
X002442Y001631D01*
X002148Y001681D02*
X002123Y001656D01*
X002048Y001656D01*
X002001Y001656D02*
X002001Y001631D01*
X001975Y001606D01*
X001900Y001606D01*
X001900Y001756D01*
X001975Y001756D01*
X002001Y001731D01*
X002001Y001706D01*
X001975Y001681D01*
X001900Y001681D01*
X001853Y001656D02*
X001828Y001681D01*
X001778Y001681D01*
X001753Y001706D01*
X001753Y001731D01*
X001778Y001756D01*
X001828Y001756D01*
X001853Y001731D01*
X001975Y001681D02*
X002001Y001656D01*
X002048Y001606D02*
X002048Y001756D01*
X002123Y001756D01*
X002148Y001731D01*
X002148Y001681D01*
X001853Y001656D02*
X001853Y001631D01*
X001828Y001606D01*
X001778Y001606D01*
X001753Y001631D01*
X001706Y001631D02*
X001706Y001756D01*
X001606Y001756D02*
X001606Y001631D01*
X001631Y001606D01*
X001681Y001606D01*
X001706Y001631D01*
X001706Y005606D02*
X001606Y005756D01*
X001706Y005756D02*
X001606Y005606D01*
X001753Y005606D02*
X001853Y005606D01*
X001803Y005606D02*
X001803Y005756D01*
X001753Y005706D01*
D12*
X007150Y004943D02*
X007601Y004943D01*
X007601Y004793D02*
X007601Y005093D01*
X007301Y004793D02*
X007150Y004943D01*
X007225Y004633D02*
X007150Y004558D01*
X007150Y004408D01*
X007225Y004333D01*
X007526Y004333D01*
X007601Y004408D01*
X007601Y004558D01*
X007526Y004633D01*
X008426Y004551D02*
X008426Y004851D01*
X008576Y005001D01*
X008726Y004851D01*
X008726Y004551D01*
X009036Y004551D02*
X009036Y005001D01*
X008886Y005001D02*
X009186Y005001D01*
X009346Y005001D02*
X009647Y005001D01*
X009497Y005001D02*
X009497Y004551D01*
X009807Y004551D02*
X009957Y004551D01*
X009882Y004551D02*
X009882Y005001D01*
X009807Y005001D02*
X009957Y005001D01*
X010114Y005001D02*
X010414Y004551D01*
X010414Y005001D01*
X010574Y005001D02*
X010574Y004926D01*
X010724Y004776D01*
X010724Y004551D01*
X010724Y004776D02*
X010874Y004926D01*
X010874Y005001D01*
X011034Y004776D02*
X011260Y005001D01*
X011260Y004551D01*
X011335Y004776D02*
X011034Y004776D01*
X011495Y004776D02*
X011795Y004776D01*
X011955Y004776D02*
X012255Y004776D01*
X012416Y004851D02*
X012491Y004776D01*
X012641Y004776D01*
X012716Y004701D01*
X012716Y004626D01*
X012641Y004551D01*
X012491Y004551D01*
X012416Y004626D01*
X012876Y004626D02*
X012951Y004551D01*
X013101Y004551D01*
X013176Y004626D01*
X013176Y004701D01*
X013101Y004776D01*
X012951Y004776D01*
X012876Y004851D01*
X012876Y004926D01*
X012951Y005001D01*
X013101Y005001D01*
X013176Y004926D01*
X013336Y005001D02*
X013336Y004626D01*
X013411Y004551D01*
X013561Y004551D01*
X013636Y004626D01*
X013636Y005001D01*
X013675Y004980D02*
X014051Y004980D01*
X014126Y004905D01*
X014126Y004830D01*
X014051Y004755D01*
X013675Y004905D02*
X013675Y005055D01*
X013826Y005215D02*
X013675Y005366D01*
X014126Y005366D01*
X014126Y005516D02*
X014126Y005215D01*
X012716Y004926D02*
X012641Y005001D01*
X012491Y005001D01*
X012416Y004926D01*
X012416Y004851D01*
X011720Y005001D02*
X011720Y004551D01*
X011495Y004776D02*
X011720Y005001D01*
X010114Y005001D02*
X010114Y004551D01*
X008726Y004776D02*
X008426Y004776D01*
X007601Y004176D02*
X007601Y004026D01*
X007601Y004101D02*
X007150Y004101D01*
X007150Y004026D02*
X007150Y004176D01*
X009467Y002431D02*
X011435Y002431D01*
X011435Y002313D01*
X009467Y002313D02*
X009467Y002431D01*
X009467Y001289D02*
X009467Y001171D01*
X011435Y001171D01*
X011435Y001289D01*
X014055Y000651D02*
X014130Y000576D01*
X014205Y000576D01*
X014280Y000651D01*
X014280Y001026D01*
X014205Y001026D02*
X014355Y001026D01*
X014515Y000951D02*
X014590Y001026D01*
X014741Y001026D01*
X014816Y000951D01*
X014816Y000876D01*
X014515Y000576D01*
X014816Y000576D01*
D13*
X014851Y001101D02*
X013751Y001101D01*
X013734Y001103D01*
X013717Y001107D01*
X013701Y001114D01*
X013687Y001124D01*
X013674Y001137D01*
X013664Y001151D01*
X013657Y001167D01*
X013653Y001184D01*
X013651Y001201D01*
X013651Y001801D01*
X013653Y001818D01*
X013657Y001835D01*
X013664Y001851D01*
X013674Y001865D01*
X013687Y001878D01*
X013701Y001888D01*
X013717Y001895D01*
X013734Y001899D01*
X013751Y001901D01*
X014851Y001901D01*
X014868Y001899D01*
X014885Y001895D01*
X014901Y001888D01*
X014915Y001878D01*
X014928Y001865D01*
X014938Y001851D01*
X014945Y001835D01*
X014949Y001818D01*
X014951Y001801D01*
X014951Y001201D01*
X014949Y001184D01*
X014945Y001167D01*
X014938Y001151D01*
X014928Y001137D01*
X014915Y001124D01*
X014901Y001114D01*
X014885Y001107D01*
X014868Y001103D01*
X014851Y001101D01*
X011081Y004096D02*
X011081Y005506D01*
X012801Y005551D02*
X012801Y004451D01*
X012803Y004434D01*
X012807Y004417D01*
X012814Y004401D01*
X012824Y004387D01*
X012837Y004374D01*
X012851Y004364D01*
X012867Y004357D01*
X012884Y004353D01*
X012901Y004351D01*
X013501Y004351D01*
X013518Y004353D01*
X013535Y004357D01*
X013551Y004364D01*
X013565Y004374D01*
X013578Y004387D01*
X013588Y004401D01*
X013595Y004417D01*
X013599Y004434D01*
X013601Y004451D01*
X013601Y005551D01*
X013599Y005568D01*
X013595Y005585D01*
X013588Y005601D01*
X013578Y005615D01*
X013565Y005628D01*
X013551Y005638D01*
X013535Y005645D01*
X013518Y005649D01*
X013501Y005651D01*
X012901Y005651D01*
X012884Y005649D01*
X012867Y005645D01*
X012851Y005638D01*
X012837Y005628D01*
X012824Y005615D01*
X012814Y005601D01*
X012807Y005585D01*
X012803Y005568D01*
X012801Y005551D01*
X007811Y004496D02*
X007813Y004525D01*
X007819Y004553D01*
X007828Y004580D01*
X007842Y004605D01*
X007858Y004629D01*
X007878Y004649D01*
X007900Y004668D01*
X007924Y004682D01*
X007951Y004694D01*
X007978Y004702D01*
X008007Y004706D01*
X008035Y004706D01*
X008064Y004702D01*
X008091Y004694D01*
X008118Y004682D01*
X008142Y004668D01*
X008164Y004649D01*
X008184Y004629D01*
X008200Y004605D01*
X008214Y004580D01*
X008223Y004553D01*
X008229Y004525D01*
X008231Y004496D01*
X008229Y004467D01*
X008223Y004439D01*
X008214Y004412D01*
X008200Y004387D01*
X008184Y004363D01*
X008164Y004343D01*
X008142Y004324D01*
X008118Y004310D01*
X008091Y004298D01*
X008064Y004290D01*
X008035Y004286D01*
X008007Y004286D01*
X007978Y004290D01*
X007951Y004298D01*
X007924Y004310D01*
X007900Y004324D01*
X007878Y004343D01*
X007858Y004363D01*
X007842Y004387D01*
X007828Y004412D01*
X007819Y004439D01*
X007813Y004467D01*
X007811Y004496D01*
X007721Y004096D02*
X007721Y005506D01*
D14*
X006881Y005402D02*
X006881Y005248D01*
X006804Y005172D01*
X006651Y005248D02*
X006651Y005479D01*
X006804Y005479D02*
X006497Y005479D01*
X006420Y005402D01*
X006420Y005248D01*
X006497Y005172D01*
X006574Y005172D01*
X006651Y005248D01*
X006881Y005402D02*
X006804Y005479D01*
X006231Y004991D02*
X006154Y005068D01*
X006077Y005068D01*
X006001Y004991D01*
X006001Y004915D01*
X006051Y004867D02*
X006051Y004637D01*
X005974Y004560D01*
X005897Y004560D01*
X005820Y004637D01*
X005820Y004790D01*
X005897Y004867D01*
X006204Y004867D01*
X006281Y004790D01*
X006281Y004637D01*
X006204Y004560D01*
X006231Y004531D02*
X006231Y004608D01*
X006154Y004608D01*
X006154Y004531D01*
X006231Y004531D01*
X006204Y004407D02*
X006281Y004407D01*
X006281Y004330D01*
X006204Y004330D01*
X006204Y004407D01*
X006154Y004378D02*
X006231Y004301D01*
X006231Y004147D01*
X006154Y004071D01*
X006204Y004177D02*
X005897Y004177D01*
X005820Y004100D01*
X005820Y003946D01*
X005897Y003870D01*
X005974Y003870D01*
X006051Y003946D01*
X006051Y004177D01*
X006001Y004224D02*
X006001Y004301D01*
X006077Y004378D01*
X006154Y004378D01*
X006001Y004301D02*
X005924Y004378D01*
X005847Y004378D01*
X005770Y004301D01*
X005770Y004147D01*
X005847Y004071D01*
X006204Y004177D02*
X006281Y004100D01*
X006281Y003946D01*
X006204Y003870D01*
X006051Y003716D02*
X006051Y003409D01*
X005820Y003640D01*
X006281Y003640D01*
X006651Y004021D02*
X006651Y004328D01*
X006881Y004251D02*
X006420Y004251D01*
X006651Y004021D01*
X007320Y004100D02*
X007320Y004330D01*
X007397Y004407D01*
X007551Y004407D01*
X007627Y004330D01*
X007627Y004100D01*
X007781Y004100D02*
X007320Y004100D01*
X007627Y004253D02*
X007781Y004407D01*
X007781Y004560D02*
X007781Y004867D01*
X007781Y004714D02*
X007320Y004714D01*
X007474Y004560D01*
X006881Y004558D02*
X006804Y004481D01*
X006881Y004558D02*
X006881Y004711D01*
X006804Y004788D01*
X006497Y004788D01*
X006420Y004711D01*
X006420Y004558D01*
X006497Y004481D01*
X006574Y004481D01*
X006651Y004558D01*
X006651Y004788D01*
X006804Y004941D02*
X006804Y005018D01*
X006881Y005018D01*
X006881Y004941D01*
X006804Y004941D01*
X006231Y004991D02*
X006231Y004838D01*
X006154Y004761D01*
X005847Y004761D02*
X005770Y004838D01*
X005770Y004991D01*
X005847Y005068D01*
X005924Y005068D01*
X006001Y004991D01*
X005381Y004788D02*
X005381Y004481D01*
X005074Y004788D01*
X004997Y004788D01*
X004920Y004711D01*
X004920Y004558D01*
X004997Y004481D01*
X004997Y004328D02*
X005151Y004328D01*
X005227Y004251D01*
X005227Y004021D01*
X005254Y003961D02*
X005331Y004038D01*
X005331Y004191D01*
X005254Y004268D01*
X005177Y004268D01*
X005101Y004191D01*
X005101Y004115D01*
X005101Y004191D02*
X005024Y004268D01*
X004947Y004268D01*
X004870Y004191D01*
X004870Y004038D01*
X004947Y003961D01*
X004920Y004021D02*
X004920Y004251D01*
X004997Y004328D01*
X005227Y004174D02*
X005381Y004328D01*
X005381Y004021D02*
X004920Y004021D01*
X005254Y003808D02*
X005331Y003808D01*
X005331Y003731D01*
X005254Y003731D01*
X005254Y003808D01*
X005254Y003578D02*
X005331Y003501D01*
X005331Y003347D01*
X005254Y003271D01*
X005101Y003424D02*
X005101Y003501D01*
X005177Y003578D01*
X005254Y003578D01*
X005101Y003501D02*
X005024Y003578D01*
X004947Y003578D01*
X004870Y003501D01*
X004870Y003347D01*
X004947Y003271D01*
X004481Y002967D02*
X004251Y002737D01*
X004327Y002660D02*
X004020Y002967D01*
X003331Y003271D02*
X003331Y003501D01*
X003254Y003578D01*
X002947Y003578D01*
X002870Y003501D01*
X002870Y003271D01*
X003331Y003271D01*
X003331Y003731D02*
X003024Y004038D01*
X002947Y004038D01*
X002870Y003961D01*
X002870Y003808D01*
X002947Y003731D01*
X003331Y003731D02*
X003331Y004038D01*
X003770Y004071D02*
X003770Y004301D01*
X003847Y004378D01*
X004154Y004378D01*
X004231Y004301D01*
X004231Y004071D01*
X003770Y004071D01*
X003924Y004531D02*
X003770Y004685D01*
X004231Y004685D01*
X004231Y004838D02*
X004231Y004531D01*
X005597Y002967D02*
X005674Y002967D01*
X005751Y002891D01*
X005827Y002967D01*
X005904Y002967D01*
X005981Y002891D01*
X005981Y002737D01*
X005904Y002660D01*
X005981Y002507D02*
X005827Y002353D01*
X005827Y002430D02*
X005827Y002200D01*
X005974Y002167D02*
X006281Y002167D01*
X006281Y001937D01*
X006204Y001860D01*
X005974Y001860D01*
X006281Y001707D02*
X006281Y001400D01*
X006281Y001553D02*
X005820Y001553D01*
X005974Y001400D01*
X006204Y001246D02*
X006281Y001246D01*
X006281Y001170D01*
X006204Y001170D01*
X006204Y001246D01*
X006204Y001016D02*
X005897Y001016D01*
X006204Y000709D01*
X006281Y000786D01*
X006281Y000940D01*
X006204Y001016D01*
X005897Y001016D02*
X005820Y000940D01*
X005820Y000786D01*
X005897Y000709D01*
X006204Y000709D01*
X005151Y001240D02*
X005151Y001547D01*
X005381Y001470D02*
X004920Y001470D01*
X005151Y001240D01*
X005074Y001700D02*
X005151Y001777D01*
X005151Y002007D01*
X005304Y002007D02*
X004997Y002007D01*
X004920Y001930D01*
X004920Y001777D01*
X004997Y001700D01*
X005074Y001700D01*
X005304Y001700D02*
X005381Y001777D01*
X005381Y001930D01*
X005304Y002007D01*
X005304Y002160D02*
X005381Y002237D01*
X005381Y002391D01*
X005304Y002467D01*
X004997Y002467D01*
X004920Y002391D01*
X004920Y002237D01*
X004997Y002160D01*
X005074Y002160D01*
X005151Y002237D01*
X005151Y002467D01*
X005520Y002430D02*
X005597Y002507D01*
X005751Y002507D01*
X005827Y002430D01*
X005520Y002430D02*
X005520Y002200D01*
X005981Y002200D01*
X006420Y002467D02*
X006497Y002314D01*
X006651Y002160D01*
X006651Y002391D01*
X006727Y002467D01*
X006804Y002467D01*
X006881Y002391D01*
X006881Y002237D01*
X006804Y002160D01*
X006651Y002160D01*
X006874Y002167D02*
X007181Y002167D01*
X007181Y001937D01*
X007104Y001860D01*
X006874Y001860D01*
X006727Y001853D02*
X006881Y002007D01*
X006727Y001930D02*
X006727Y001700D01*
X006881Y001700D02*
X006420Y001700D01*
X006420Y001930D01*
X006497Y002007D01*
X006651Y002007D01*
X006727Y001930D01*
X007181Y001707D02*
X007181Y001400D01*
X007320Y001477D02*
X007397Y001400D01*
X007704Y001400D01*
X007781Y001477D01*
X007781Y001630D01*
X007704Y001707D01*
X007747Y001707D02*
X007824Y001707D01*
X007901Y001630D01*
X007901Y001477D01*
X007824Y001400D01*
X007747Y001400D01*
X007670Y001477D01*
X007670Y001630D01*
X007747Y001707D01*
X007901Y001630D02*
X007977Y001707D01*
X008054Y001707D01*
X008131Y001630D01*
X008131Y001477D01*
X008054Y001400D01*
X007977Y001400D01*
X007901Y001477D01*
X008220Y001477D02*
X008220Y001630D01*
X008297Y001707D01*
X008284Y001860D02*
X007824Y001860D01*
X007824Y002091D01*
X007901Y002167D01*
X008054Y002167D01*
X008131Y002091D01*
X008131Y001860D01*
X008220Y002091D02*
X008451Y001860D01*
X008451Y002167D01*
X008681Y002091D02*
X008220Y002091D01*
X007781Y002091D02*
X007781Y001937D01*
X007704Y001860D01*
X007551Y002014D02*
X007551Y002091D01*
X007627Y002167D01*
X007704Y002167D01*
X007781Y002091D01*
X007551Y002091D02*
X007474Y002167D01*
X007397Y002167D01*
X007320Y002091D01*
X007320Y001937D01*
X007397Y001860D01*
X007397Y001707D02*
X007320Y001630D01*
X007320Y001477D01*
X007181Y001553D02*
X006720Y001553D01*
X006874Y001400D01*
X008220Y001477D02*
X008297Y001400D01*
X008604Y001400D01*
X008681Y001477D01*
X008681Y001630D01*
X008604Y001707D01*
X009170Y001630D02*
X009170Y001477D01*
X009247Y001400D01*
X009554Y001400D01*
X009631Y001477D01*
X009631Y001630D01*
X009554Y001707D01*
X009247Y001707D02*
X009170Y001630D01*
X009324Y001860D02*
X009170Y002014D01*
X009631Y002014D01*
X009631Y002167D02*
X009631Y001860D01*
X011270Y001930D02*
X011270Y001777D01*
X011347Y001700D01*
X011424Y001700D01*
X011501Y001777D01*
X011501Y001930D01*
X011577Y002007D01*
X011654Y002007D01*
X011731Y001930D01*
X011731Y001777D01*
X011654Y001700D01*
X011577Y001700D01*
X011501Y001777D01*
X011501Y001930D02*
X011424Y002007D01*
X011347Y002007D01*
X011270Y001930D01*
X011424Y002160D02*
X011424Y002391D01*
X011501Y002467D01*
X011654Y002467D01*
X011731Y002391D01*
X011731Y002160D01*
X011884Y002160D02*
X011424Y002160D01*
X012170Y002160D02*
X012631Y002160D01*
X012477Y002160D02*
X012170Y002467D01*
X012401Y002237D02*
X012631Y002467D01*
X012770Y002391D02*
X012770Y002237D01*
X012847Y002160D01*
X012847Y002007D02*
X012770Y001930D01*
X012770Y001777D01*
X012847Y001700D01*
X013154Y001700D01*
X013231Y001777D01*
X013231Y001930D01*
X013154Y002007D01*
X013374Y001938D02*
X013681Y001938D01*
X013670Y001930D02*
X013747Y002007D01*
X013901Y002007D01*
X013977Y001930D01*
X013977Y001700D01*
X014131Y001700D02*
X013670Y001700D01*
X013670Y001930D01*
X013977Y001853D02*
X014131Y002007D01*
X013901Y002160D02*
X013901Y002467D01*
X013681Y002551D02*
X013220Y002551D01*
X013220Y002782D01*
X013297Y002858D01*
X013451Y002858D01*
X013527Y002782D01*
X013527Y002551D01*
X013527Y002398D02*
X013220Y002398D01*
X013231Y002467D02*
X013231Y002160D01*
X012924Y002467D01*
X012847Y002467D01*
X012770Y002391D01*
X013220Y002091D02*
X013527Y002091D01*
X013681Y002245D01*
X013527Y002398D01*
X013670Y002391D02*
X013901Y002160D01*
X013451Y001938D02*
X013451Y001631D01*
X013374Y001631D02*
X013220Y001784D01*
X013374Y001938D01*
X013374Y001631D02*
X013681Y001631D01*
X012631Y001547D02*
X012631Y001240D01*
X012631Y001393D02*
X012170Y001393D01*
X012324Y001240D01*
X012247Y001700D02*
X012170Y001777D01*
X012170Y001930D01*
X012247Y002007D01*
X012554Y001700D01*
X012631Y001777D01*
X012631Y001930D01*
X012554Y002007D01*
X012247Y002007D01*
X012247Y001700D02*
X012554Y001700D01*
X013670Y002391D02*
X014131Y002391D01*
X013681Y002858D02*
X013527Y002705D01*
X013681Y003012D02*
X013681Y003165D01*
X013681Y003089D02*
X013220Y003089D01*
X013220Y003165D02*
X013220Y003012D01*
X013297Y003319D02*
X013374Y003319D01*
X013451Y003395D01*
X013451Y003549D01*
X013527Y003626D01*
X013604Y003626D01*
X013681Y003549D01*
X013681Y003395D01*
X013604Y003319D01*
X013297Y003319D02*
X013220Y003395D01*
X013220Y003549D01*
X013297Y003626D01*
X013231Y003697D02*
X013154Y003621D01*
X012847Y003928D01*
X013154Y003928D01*
X013231Y003851D01*
X013231Y003697D01*
X013220Y003779D02*
X013220Y004009D01*
X013297Y004086D01*
X013451Y004086D01*
X013527Y004009D01*
X013527Y003779D01*
X013681Y003779D02*
X013220Y003779D01*
X013154Y003621D02*
X012847Y003621D01*
X012770Y003697D01*
X012770Y003851D01*
X012847Y003928D01*
X013220Y004316D02*
X013297Y004239D01*
X013374Y004239D01*
X013451Y004316D01*
X013451Y004470D01*
X013527Y004546D01*
X013604Y004546D01*
X013681Y004470D01*
X013681Y004316D01*
X013604Y004239D01*
X013220Y004316D02*
X013220Y004470D01*
X013297Y004546D01*
X013220Y004700D02*
X013374Y004853D01*
X013220Y005007D01*
X013681Y005007D01*
X013681Y005160D02*
X013681Y005390D01*
X013604Y005467D01*
X013297Y005467D01*
X013220Y005390D01*
X013220Y005160D01*
X013681Y005160D01*
X013681Y004700D02*
X013220Y004700D01*
X011731Y004311D02*
X011731Y004158D01*
X011654Y004081D01*
X011501Y004081D02*
X011424Y004235D01*
X011424Y004311D01*
X011501Y004388D01*
X011654Y004388D01*
X011731Y004311D01*
X011501Y004081D02*
X011270Y004081D01*
X011270Y004388D01*
X011347Y003928D02*
X011501Y003928D01*
X011577Y003851D01*
X011577Y003621D01*
X011731Y003621D02*
X011270Y003621D01*
X011270Y003851D01*
X011347Y003928D01*
X011577Y003774D02*
X011731Y003928D01*
X010857Y003281D02*
X010857Y002821D01*
X011010Y002821D02*
X011317Y002821D01*
X011317Y003128D02*
X011010Y002821D01*
X010857Y003051D02*
X010550Y003051D01*
X010396Y003281D02*
X010243Y003128D01*
X010090Y003281D01*
X010090Y002821D01*
X009936Y002897D02*
X009859Y002821D01*
X009706Y002821D01*
X009629Y002897D01*
X009936Y003204D01*
X009936Y002897D01*
X009629Y002897D02*
X009629Y003204D01*
X009706Y003281D01*
X009859Y003281D01*
X009936Y003204D01*
X010396Y003281D02*
X010396Y002821D01*
X010550Y002821D02*
X010550Y003281D01*
X011010Y003128D02*
X011317Y003128D01*
X009476Y003128D02*
X009476Y003204D01*
X009399Y003281D01*
X009246Y003281D01*
X009169Y003204D01*
X009476Y003128D02*
X009169Y002821D01*
X009476Y002821D01*
X005751Y002891D02*
X005751Y002814D01*
X005597Y002967D02*
X005520Y002891D01*
X005520Y002737D01*
X005597Y002660D01*
X004481Y002660D02*
X004020Y002660D01*
X004481Y002507D02*
X004481Y002200D01*
X004481Y002353D02*
X004020Y002353D01*
X004174Y002200D01*
X009169Y000781D02*
X009476Y000321D01*
X009783Y000321D02*
X009783Y000781D01*
X009936Y000781D02*
X009629Y000781D01*
X009476Y000781D02*
X009169Y000321D01*
X010090Y000321D02*
X010090Y000628D01*
X010243Y000781D01*
X010396Y000628D01*
X010396Y000321D01*
X010550Y000321D02*
X010857Y000321D01*
X011010Y000321D02*
X011317Y000321D01*
X011164Y000321D02*
X011164Y000781D01*
X011010Y000628D01*
X010550Y000781D02*
X010550Y000321D01*
X010396Y000551D02*
X010090Y000551D01*
X016720Y004700D02*
X017181Y005007D01*
X017181Y005160D02*
X016874Y005467D01*
X016797Y005467D01*
X016720Y005391D01*
X016720Y005237D01*
X016797Y005160D01*
X016720Y005007D02*
X017181Y004700D01*
X017181Y005160D02*
X017181Y005467D01*
X016681Y005660D02*
X016681Y005967D01*
X016681Y005814D02*
X016220Y005814D01*
X016374Y005660D01*
M02*
