G75*
G70*
%OFA0B0*%
%FSLAX24Y24*%
%IPPOS*%
%LPD*%
%AMOC8*
5,1,8,0,0,1.08239X$1,22.5*
%
%ADD10C,0.0000*%
D10*
X000101Y001233D02*
X000101Y006033D01*
X004251Y006033D01*
X004251Y006083D01*
X004253Y006138D01*
X004258Y006192D01*
X004268Y006246D01*
X004281Y006299D01*
X004297Y006351D01*
X004317Y006402D01*
X004341Y006451D01*
X004367Y006499D01*
X004397Y006544D01*
X004430Y006588D01*
X004466Y006629D01*
X004505Y006668D01*
X004546Y006704D01*
X004590Y006737D01*
X004635Y006767D01*
X004683Y006793D01*
X004732Y006817D01*
X004783Y006837D01*
X004835Y006853D01*
X004888Y006866D01*
X004942Y006876D01*
X004996Y006881D01*
X005051Y006883D01*
X016851Y006883D01*
X016903Y006883D01*
X016954Y006879D01*
X017006Y006871D01*
X017056Y006860D01*
X017106Y006846D01*
X017154Y006827D01*
X017201Y006806D01*
X017247Y006781D01*
X017290Y006753D01*
X017332Y006722D01*
X017371Y006688D01*
X017407Y006651D01*
X017441Y006612D01*
X017472Y006571D01*
X017500Y006527D01*
X017525Y006482D01*
X017546Y006435D01*
X017564Y006386D01*
X017579Y006336D01*
X017590Y006286D01*
X017597Y006235D01*
X017601Y006183D01*
X017601Y001083D01*
X017597Y001031D01*
X017590Y000980D01*
X017579Y000930D01*
X017564Y000880D01*
X017546Y000831D01*
X017525Y000784D01*
X017500Y000739D01*
X017472Y000695D01*
X017441Y000654D01*
X017407Y000615D01*
X017371Y000578D01*
X017332Y000544D01*
X017290Y000513D01*
X017247Y000485D01*
X017201Y000460D01*
X017154Y000439D01*
X017106Y000420D01*
X017056Y000406D01*
X017006Y000395D01*
X016954Y000387D01*
X016903Y000383D01*
X016851Y000383D01*
X005051Y000383D01*
X004996Y000385D01*
X004942Y000390D01*
X004888Y000400D01*
X004835Y000413D01*
X004783Y000429D01*
X004732Y000449D01*
X004683Y000473D01*
X004635Y000499D01*
X004590Y000529D01*
X004546Y000562D01*
X004505Y000598D01*
X004466Y000637D01*
X004430Y000678D01*
X004397Y000722D01*
X004367Y000767D01*
X004341Y000815D01*
X004317Y000864D01*
X004297Y000915D01*
X004281Y000967D01*
X004268Y001020D01*
X004258Y001074D01*
X004253Y001128D01*
X004251Y001183D01*
X004251Y001233D01*
X000101Y001233D01*
X016401Y001183D02*
X016403Y001223D01*
X016409Y001262D01*
X016419Y001301D01*
X016432Y001338D01*
X016450Y001374D01*
X016471Y001408D01*
X016495Y001440D01*
X016522Y001469D01*
X016552Y001496D01*
X016584Y001519D01*
X016619Y001539D01*
X016655Y001555D01*
X016693Y001568D01*
X016732Y001577D01*
X016771Y001582D01*
X016811Y001583D01*
X016851Y001580D01*
X016890Y001573D01*
X016928Y001562D01*
X016966Y001548D01*
X017001Y001529D01*
X017034Y001508D01*
X017066Y001483D01*
X017094Y001455D01*
X017120Y001425D01*
X017142Y001392D01*
X017161Y001357D01*
X017177Y001320D01*
X017189Y001282D01*
X017197Y001243D01*
X017201Y001203D01*
X017201Y001163D01*
X017197Y001123D01*
X017189Y001084D01*
X017177Y001046D01*
X017161Y001009D01*
X017142Y000974D01*
X017120Y000941D01*
X017094Y000911D01*
X017066Y000883D01*
X017034Y000858D01*
X017001Y000837D01*
X016966Y000818D01*
X016928Y000804D01*
X016890Y000793D01*
X016851Y000786D01*
X016811Y000783D01*
X016771Y000784D01*
X016732Y000789D01*
X016693Y000798D01*
X016655Y000811D01*
X016619Y000827D01*
X016584Y000847D01*
X016552Y000870D01*
X016522Y000897D01*
X016495Y000926D01*
X016471Y000958D01*
X016450Y000992D01*
X016432Y001028D01*
X016419Y001065D01*
X016409Y001104D01*
X016403Y001143D01*
X016401Y001183D01*
M02*
