G75*
G70*
%OFA0B0*%
%FSLAX24Y24*%
%IPPOS*%
%LPD*%
%AMOC8*
5,1,8,0,0,1.08239X$1,22.5*
%
%ADD10C,0.0880*%
%ADD11R,0.3033X0.0671*%
%ADD12R,0.2639X0.0474*%
%ADD13R,0.0320X0.0950*%
%ADD14R,0.1080X0.0580*%
%ADD15R,0.0395X0.0710*%
%ADD16R,0.0790X0.0710*%
%ADD17R,0.0710X0.0790*%
%ADD18R,0.0710X0.0520*%
%ADD19R,0.0789X0.0710*%
%ADD20R,0.0867X0.1025*%
D10*
X016801Y001183D03*
D11*
X002022Y002255D03*
X002022Y005011D03*
D12*
X002219Y004027D03*
X002219Y003239D03*
D13*
X008401Y003808D03*
X008901Y003808D03*
X009401Y003808D03*
X009901Y003808D03*
X010401Y003808D03*
X010901Y003808D03*
X011401Y003808D03*
X011401Y005858D03*
X010901Y005858D03*
X010401Y005858D03*
X009901Y005858D03*
X009401Y005858D03*
X008901Y005858D03*
X008401Y005858D03*
D14*
X013401Y006033D03*
X015550Y006033D03*
X015550Y005033D03*
X013401Y005033D03*
X013401Y004033D03*
X015550Y004033D03*
D15*
X005501Y004164D03*
X004601Y004702D03*
X005501Y005502D03*
X004601Y003364D03*
D16*
X005501Y003193D03*
X006401Y002393D03*
X005501Y002073D03*
X006401Y001273D03*
X013451Y002023D03*
X013451Y003143D03*
X007301Y004373D03*
X006401Y004373D03*
X006401Y005493D03*
X007301Y005493D03*
D17*
X007711Y003383D03*
X006591Y003383D03*
D18*
X012151Y003873D03*
X012151Y004493D03*
X016401Y002743D03*
X016401Y002123D03*
D19*
X015451Y002584D03*
X015451Y001482D03*
X009151Y001282D03*
X008201Y001282D03*
X007301Y001282D03*
X007301Y002384D03*
X008201Y002384D03*
X009151Y002384D03*
D20*
X010413Y001783D03*
X011988Y001783D03*
M02*
