G75*
G70*
%OFA0B0*%
%FSLAX24Y24*%
%IPPOS*%
%LPD*%
%AMOC8*
5,1,8,0,0,1.08239X$1,22.5*
%
%ADD10C,0.0880*%
%ADD11R,0.3033X0.0671*%
%ADD12R,0.2639X0.0474*%
%ADD13R,0.0320X0.0950*%
%ADD14R,0.1080X0.0580*%
%ADD15R,0.0395X0.0710*%
%ADD16R,0.0790X0.0710*%
%ADD17R,0.0710X0.0790*%
%ADD18R,0.0710X0.0520*%
%ADD19R,0.0789X0.0710*%
%ADD20R,0.0867X0.1025*%
D10*
X016551Y000911D03*
D11*
X002022Y001983D03*
X002022Y004739D03*
D12*
X002219Y003755D03*
X002219Y002967D03*
D13*
X008401Y003536D03*
X008901Y003536D03*
X009401Y003536D03*
X009901Y003536D03*
X010401Y003536D03*
X010901Y003536D03*
X011401Y003536D03*
X011401Y005586D03*
X010901Y005586D03*
X010401Y005586D03*
X009901Y005586D03*
X009401Y005586D03*
X008901Y005586D03*
X008401Y005586D03*
D14*
X013401Y005761D03*
X015550Y005761D03*
X015550Y004761D03*
X013401Y004761D03*
X013401Y003761D03*
X015550Y003761D03*
D15*
X005501Y003892D03*
X004601Y004430D03*
X005501Y005230D03*
X004601Y003092D03*
D16*
X005501Y002921D03*
X006401Y002121D03*
X005501Y001801D03*
X006401Y001001D03*
X013451Y001751D03*
X013451Y002871D03*
X007301Y004101D03*
X006401Y004101D03*
X006401Y005221D03*
X007301Y005221D03*
D17*
X007711Y003111D03*
X006591Y003111D03*
D18*
X012151Y003601D03*
X012151Y004221D03*
X016101Y002771D03*
X016101Y002151D03*
D19*
X015201Y002312D03*
X015201Y001210D03*
X009151Y001010D03*
X008201Y001010D03*
X007301Y001010D03*
X007301Y002112D03*
X008201Y002112D03*
X009151Y002112D03*
D20*
X010413Y001511D03*
X011988Y001511D03*
M02*
